<svg width="13" height="13" viewBox="0 0 13 13" fill="none" xmlns="http://www.w3.org/2000/svg">
<path fill-rule="evenodd" clip-rule="evenodd" d="M8.66438 13H11C12.1046 13 13 12.1046 13 11V8.04501L8.66438 13ZM13 6.52642V2.99608L3.43104 13H7.33562L13 6.52642ZM11 0C11.965 0 12.7704 0.683469 12.9585 1.59275L2.04722 13H2C1.03498 13 0.229592 12.3165 0.0414929 11.4072L10.9528 0H11ZM9.56896 0H5.66438L0 6.47358V10.0039L9.56896 0ZM2 0H4.33562L0 4.95499V2C0 0.89543 0.895431 0 2 0Z" fill="#C8C8C8"/>
</svg>
