<svg width="34" height="34" viewBox="0 0 34 34" fill="none" xmlns="http://www.w3.org/2000/svg">
<path fill-rule="evenodd" clip-rule="evenodd" d="M17 32.5833C17 32.5833 29.75 24.0833 29.75 14.1666C29.75 10.7851 28.4067 7.5421 26.0156 5.15101C23.6245 2.75993 20.3815 1.41663 17 1.41663C13.6185 1.41663 10.3755 2.75993 7.98439 5.15101C5.5933 7.5421 4.25 10.7851 4.25 14.1666C4.25 24.0833 17 32.5833 17 32.5833ZM21.25 14.1666C21.25 16.5138 19.3472 18.4166 17 18.4166C14.6528 18.4166 12.75 16.5138 12.75 14.1666C12.75 11.8194 14.6528 9.91663 17 9.91663C19.3472 9.91663 21.25 11.8194 21.25 14.1666Z" fill="#634FF1"/>
<circle cx="17" cy="15" r="6" fill="#634FF1"/>
<path d="M17 9.5V20.5" stroke="white" stroke-width="1.5" stroke-linecap="round" stroke-linejoin="round"/>
<path d="M19.5 11.5H15.75C15.2859 11.5 14.8408 11.6844 14.5126 12.0126C14.1844 12.3408 14 12.7859 14 13.25C14 13.7141 14.1844 14.1592 14.5126 14.4874C14.8408 14.8156 15.2859 15 15.75 15H18.25C18.7141 15 19.1592 15.1844 19.4874 15.5126C19.8156 15.8408 20 16.2859 20 16.75C20 17.2141 19.8156 17.6592 19.4874 17.9874C19.1592 18.3156 18.7141 18.5 18.25 18.5H14" stroke="white" stroke-width="1.5" stroke-linecap="round" stroke-linejoin="round"/>
</svg>
