<svg width="34" height="34" viewBox="0 0 34 34" fill="none" xmlns="http://www.w3.org/2000/svg">
<path fill-rule="evenodd" clip-rule="evenodd" d="M16.75 32.5833C16.75 32.5833 29.5 24.0833 29.5 14.1666C29.5 10.7851 28.1567 7.5421 25.7656 5.15101C23.3745 2.75993 20.1315 1.41663 16.75 1.41663C13.3685 1.41663 10.1255 2.75993 7.73439 5.15101C5.3433 7.5421 4 10.7851 4 14.1666C4 24.0833 16.75 32.5833 16.75 32.5833ZM21.25 14.1666C21.25 16.5138 19.3472 18.4166 17 18.4166C14.6528 18.4166 12.75 16.5138 12.75 14.1666C12.75 11.8194 14.6528 9.91663 17 9.91663C19.3472 9.91663 21.25 11.8194 21.25 14.1666Z" fill="#F9D458"/>
<circle cx="17" cy="15" r="6" fill="#F9D458"/>
<path d="M20.7148 13.3667H21.3101C21.9416 13.3667 22.5472 13.6125 22.9937 14.0501C23.4402 14.4877 23.691 15.0812 23.691 15.7C23.691 16.3189 23.4402 16.9124 22.9937 17.3499C22.5472 17.7875 21.9416 18.0334 21.3101 18.0334H20.7148" stroke="white" stroke-width="1.5" stroke-linecap="round" stroke-linejoin="round"/>
<path d="M11.1904 13.3667H20.7142V18.6167C20.7142 19.2355 20.4634 19.829 20.0169 20.2666C19.5704 20.7042 18.9648 20.95 18.3333 20.95H13.5714C12.9399 20.95 12.3343 20.7042 11.8878 20.2666C11.4413 19.829 11.1904 19.2355 11.1904 18.6167V13.3667Z" fill="white" stroke="white" stroke-width="1.5" stroke-linecap="round" stroke-linejoin="round"/>
<path d="M13.5713 9.28333V11.0333" stroke="white" stroke-width="1.5" stroke-linecap="round" stroke-linejoin="round"/>
<path d="M15.9521 9.28333V11.0333" stroke="white" stroke-width="1.5" stroke-linecap="round" stroke-linejoin="round"/>
<path d="M18.333 9.28333V11.0333" stroke="white" stroke-width="1.5" stroke-linecap="round" stroke-linejoin="round"/>
</svg>
