<svg width="40" height="40" viewBox="0 0 40 40" fill="none" xmlns="http://www.w3.org/2000/svg">
<rect width="40" height="40" rx="20" fill="#F9D458"/>
<path d="M24.5713 17.9H25.3253C26.1251 17.9 26.8922 18.2161 27.4578 18.7787C28.0234 19.3413 28.3411 20.1044 28.3411 20.9C28.3411 21.6957 28.0234 22.4587 27.4578 23.0213C26.8922 23.584 26.1251 23.9 25.3253 23.9H24.5713" stroke="white" stroke-width="1.5" stroke-linecap="round" stroke-linejoin="round"/>
<path d="M12.5078 17.9H24.5713V24.65C24.5713 25.4457 24.2536 26.2087 23.688 26.7713C23.1224 27.334 22.3553 27.65 21.5554 27.65H15.5237C14.7238 27.65 13.9567 27.334 13.3911 26.7713C12.8256 26.2087 12.5078 25.4457 12.5078 24.65V17.9Z" fill="white" stroke="white" stroke-width="1.5" stroke-linecap="round" stroke-linejoin="round"/>
<path d="M15.5234 12.65V14.9" stroke="white" stroke-width="1.5" stroke-linecap="round" stroke-linejoin="round"/>
<path d="M18.54 12.65V14.9" stroke="white" stroke-width="1.5" stroke-linecap="round" stroke-linejoin="round"/>
<path d="M21.5557 12.65V14.9" stroke="white" stroke-width="1.5" stroke-linecap="round" stroke-linejoin="round"/>
</svg>
