<svg width="34" height="34" viewBox="0 0 34 34" fill="none" xmlns="http://www.w3.org/2000/svg">
<path fill-rule="evenodd" clip-rule="evenodd" d="M17 32.5833C17 32.5833 29.75 24.0833 29.75 14.1666C29.75 10.7851 28.4067 7.5421 26.0156 5.15101C23.6245 2.75993 20.3815 1.41663 17 1.41663C13.6185 1.41663 10.3755 2.75993 7.98439 5.15101C5.5933 7.5421 4.25 10.7851 4.25 14.1666C4.25 24.0833 17 32.5833 17 32.5833ZM21.25 14.1666C21.25 16.5138 19.3472 18.4166 17 18.4166C14.6528 18.4166 12.75 16.5138 12.75 14.1666C12.75 11.8194 14.6528 9.91663 17 9.91663C19.3472 9.91663 21.25 11.8194 21.25 14.1666Z" fill="#A564D2"/>
<circle cx="17" cy="15" r="6" fill="#A564D2"/>
<path d="M14 8L12.5 10V17C12.5 17.2652 12.6054 17.5196 12.7929 17.7071C12.9804 17.8946 13.2348 18 13.5 18H20.5C20.7652 18 21.0196 17.8946 21.2071 17.7071C21.3946 17.5196 21.5 17.2652 21.5 17V10L20 8H14Z" stroke="white" stroke-width="1.5" stroke-linecap="round" stroke-linejoin="round"/>
<path d="M12.5 10H21.5" stroke="white" stroke-width="1.5" stroke-linecap="round" stroke-linejoin="round"/>
<path fill-rule="evenodd" clip-rule="evenodd" d="M21.1998 10H12.7998V17.8H21.1998V10ZM15.75 12C15.75 11.5858 15.4142 11.25 15 11.25C14.5858 11.25 14.25 11.5858 14.25 12C14.25 12.7294 14.5397 13.4288 15.0555 13.9446C15.5712 14.4603 16.2707 14.75 17 14.75C17.7293 14.75 18.4288 14.4603 18.9445 13.9446C19.4603 13.4288 19.75 12.7294 19.75 12C19.75 11.5858 19.4142 11.25 19 11.25C18.5858 11.25 18.25 11.5858 18.25 12C18.25 12.3315 18.1183 12.6495 17.8839 12.8839C17.6495 13.1183 17.3315 13.25 17 13.25C16.6685 13.25 16.3505 13.1183 16.1161 12.8839C15.8817 12.6495 15.75 12.3315 15.75 12Z" fill="white"/>
</svg>
