<svg width="40" height="40" viewBox="0 0 40 40" fill="none" xmlns="http://www.w3.org/2000/svg">
<rect width="40" height="40" rx="20" fill="#4890E8"/>
<path d="M23 15.5V20.375C23 20.9963 23.5037 21.5 24.125 21.5C24.7463 21.5 25.25 22.0037 25.25 22.625V26.75C25.25 27.1642 25.5858 27.5 26 27.5C26.4142 27.5 26.75 27.1642 26.75 26.75V14.5C26.75 13.3954 25.804 12.4693 24.8339 12.9974C23.736 13.5949 23 14.6263 23 15.5ZM19.25 17C19.25 17.4142 18.9142 17.75 18.5 17.75C18.0858 17.75 17.75 17.4142 17.75 17V13.25C17.75 12.8358 17.4142 12.5 17 12.5C16.5858 12.5 16.25 12.8358 16.25 13.25V17C16.25 17.4142 15.9142 17.75 15.5 17.75C15.0858 17.75 14.75 17.4142 14.75 17V13.25C14.75 12.8358 14.4142 12.5 14 12.5C13.5858 12.5 13.25 12.8358 13.25 13.25V17.75C13.25 18.707 13.6975 19.5589 14.3948 20.1081C15.2625 20.7916 16.25 21.6454 16.25 22.75V26.75C16.25 27.1642 16.5858 27.5 17 27.5C17.4142 27.5 17.75 27.1642 17.75 26.75V22.75C17.75 21.6454 18.7375 20.7916 19.6052 20.1081C20.3025 19.5589 20.75 18.707 20.75 17.75V13.25C20.75 12.8358 20.4142 12.5 20 12.5C19.5858 12.5 19.25 12.8358 19.25 13.25V17Z" fill="white"/>
</svg>
