<svg width="26" height="26" viewBox="0 0 26 26" fill="none" xmlns="http://www.w3.org/2000/svg">
<path d="M23.623 10.8784H22.7503V10.8334H13.0003V15.1667H19.1228C18.2296 17.6893 15.8295 19.5001 13.0003 19.5001C9.4107 19.5001 6.50033 16.5897 6.50033 13.0001C6.50033 9.41046 9.4107 6.50008 13.0003 6.50008C14.6573 6.50008 16.1647 7.12516 17.3125 8.14621L20.3767 5.082C18.4419 3.27879 15.8538 2.16675 13.0003 2.16675C7.01762 2.16675 2.16699 7.01737 2.16699 13.0001C2.16699 18.9828 7.01762 23.8334 13.0003 23.8334C18.983 23.8334 23.8337 18.9828 23.8337 13.0001C23.8337 12.2737 23.7589 11.5647 23.623 10.8784Z" fill="#FFC107"/>
<path d="M3.41602 7.95771L6.97531 10.568C7.93839 8.18358 10.2708 6.50008 13.0003 6.50008C14.6572 6.50008 16.1647 7.12516 17.3125 8.14621L20.3767 5.082C18.4418 3.27879 15.8538 2.16675 13.0003 2.16675C8.83918 2.16675 5.2306 4.51596 3.41602 7.95771Z" fill="#FF3D00"/>
<path d="M12.9998 23.833C15.7981 23.833 18.3407 22.7621 20.2631 21.0206L16.9101 18.1834C15.8225 19.0073 14.4705 19.4996 12.9998 19.4996C10.1821 19.4996 7.78955 17.7029 6.88822 15.1956L3.35547 17.9174C5.14839 21.4258 8.78947 23.833 12.9998 23.833Z" fill="#4CAF50"/>
<path d="M23.6226 10.8782H22.75V10.8333H13V15.1666H19.1225C18.6935 16.3783 17.914 17.4232 16.9087 18.1842C16.9092 18.1837 16.9098 18.1837 16.9103 18.1831L20.2632 21.0204C20.026 21.236 23.8333 18.4166 23.8333 12.9999C23.8333 12.2735 23.7586 11.5645 23.6226 10.8782Z" fill="#1976D2"/>
</svg>
