<svg width="40" height="40" viewBox="0 0 40 40" fill="none" xmlns="http://www.w3.org/2000/svg">
<rect width="40" height="40" rx="20" fill="#5EBE86"/>
<path d="M16.292 28.7727C16.6372 28.7727 16.917 28.4979 16.917 28.159C16.917 27.8201 16.6372 27.5454 16.292 27.5454C15.9468 27.5454 15.667 27.8201 15.667 28.159C15.667 28.4979 15.9468 28.7727 16.292 28.7727Z" fill="white" stroke="white" stroke-width="1.5" stroke-linecap="round" stroke-linejoin="round"/>
<path d="M25.458 28.7727C25.8032 28.7727 26.083 28.4979 26.083 28.159C26.083 27.8201 25.8032 27.5454 25.458 27.5454C25.1128 27.5454 24.833 27.8201 24.833 28.159C24.833 28.4979 25.1128 28.7727 25.458 28.7727Z" fill="white" stroke="white" stroke-width="1.5" stroke-linecap="round" stroke-linejoin="round"/>
<path d="M9.83301 12.8182H13.1663L15.3997 23.7737C15.4759 24.1504 15.6846 24.4887 15.9893 24.7296C16.294 24.9704 16.6753 25.0983 17.0663 25.091H25.1663C25.5574 25.0983 25.9387 24.9704 26.2434 24.7296C26.5481 24.4887 26.7568 24.1504 26.833 23.7737L28.1663 16.9091H13.9997" stroke="white" stroke-width="1.5" stroke-linecap="round" stroke-linejoin="round"/>
<path d="M16 25L14.5 17.5L28 17L26 25H16Z" fill="white"/>
</svg>
