<svg width="40" height="40" viewBox="0 0 40 40" fill="none" xmlns="http://www.w3.org/2000/svg">
<rect width="40" height="40" rx="20" fill="#E15F59"/>
<path d="M25.8931 16.0733C25.5526 15.7327 25.1483 15.4624 24.7033 15.2781C24.2584 15.0937 23.7814 14.9988 23.2998 14.9988C22.8181 14.9988 22.3412 15.0937 21.8962 15.2781C21.4512 15.4624 21.0469 15.7327 20.7064 16.0733L19.9998 16.78L19.2931 16.0733C18.6053 15.3855 17.6724 14.9991 16.6998 14.9991C15.7271 14.9991 14.7942 15.3855 14.1064 16.0733C13.4186 16.7611 13.0322 17.694 13.0322 18.6667C13.0322 19.6394 13.4186 20.5722 14.1064 21.26L14.8131 21.9667L19.9998 27.1533L25.1864 21.9667L25.8931 21.26C26.2338 20.9195 26.504 20.5152 26.6884 20.0702C26.8727 19.6253 26.9676 19.1483 26.9676 18.6667C26.9676 18.185 26.8727 17.7081 26.6884 17.2631C26.504 16.8181 26.2338 16.4138 25.8931 16.0733Z" fill="white" stroke="white" stroke-width="1.5" stroke-linecap="round" stroke-linejoin="round"/>
</svg>
