<svg width="34" height="34" viewBox="0 0 34 34" fill="none" xmlns="http://www.w3.org/2000/svg">
<path fill-rule="evenodd" clip-rule="evenodd" d="M17 32.5833C17 32.5833 29.75 24.0833 29.75 14.1666C29.75 10.7851 28.4067 7.5421 26.0156 5.15101C23.6245 2.75993 20.3815 1.41663 17 1.41663C13.6185 1.41663 10.3755 2.75993 7.98439 5.15101C5.5933 7.5421 4.25 10.7851 4.25 14.1666C4.25 24.0833 17 32.5833 17 32.5833ZM21.25 14.1666C21.25 16.5138 19.3472 18.4166 17 18.4166C14.6528 18.4166 12.75 16.5138 12.75 14.1666C12.75 11.8194 14.6528 9.91663 17 9.91663C19.3472 9.91663 21.25 11.8194 21.25 14.1666Z" fill="#E15F59"/>
<circle cx="17" cy="15" r="6" fill="#E15F59"/>
<path d="M20.6835 11.9209C20.4707 11.7079 20.2181 11.539 19.9399 11.4238C19.6618 11.3086 19.3637 11.2493 19.0627 11.2493C18.7617 11.2493 18.4636 11.3086 18.1855 11.4238C17.9074 11.539 17.6547 11.7079 17.4419 11.9209L17.0002 12.3625L16.5585 11.9209C16.1287 11.491 15.5456 11.2495 14.9377 11.2495C14.3298 11.2495 13.7468 11.491 13.3169 11.9209C12.887 12.3507 12.6455 12.9338 12.6455 13.5417C12.6455 14.1496 12.887 14.7327 13.3169 15.1625L13.7585 15.6042L17.0002 18.8459L20.2419 15.6042L20.6835 15.1625C20.8965 14.9497 21.0654 14.697 21.1806 14.4189C21.2958 14.1408 21.3551 13.8427 21.3551 13.5417C21.3551 13.2407 21.2958 12.9426 21.1806 12.6645C21.0654 12.3864 20.8965 12.1337 20.6835 11.9209V11.9209Z" fill="white" stroke="white" stroke-width="1.5" stroke-linecap="round" stroke-linejoin="round"/>
</svg>
