<svg width="34" height="34" viewBox="0 0 34 34" fill="none" xmlns="http://www.w3.org/2000/svg">
<path fill-rule="evenodd" clip-rule="evenodd" d="M17 32.5833C17 32.5833 29.75 24.0833 29.75 14.1666C29.75 10.7851 28.4067 7.5421 26.0156 5.15101C23.6245 2.75993 20.3815 1.41663 17 1.41663C13.6185 1.41663 10.3755 2.75993 7.98439 5.15101C5.5933 7.5421 4.25 10.7851 4.25 14.1666C4.25 24.0833 17 32.5833 17 32.5833ZM21.25 14.1666C21.25 16.5138 19.3472 18.4166 17 18.4166C14.6528 18.4166 12.75 16.5138 12.75 14.1666C12.75 11.8194 14.6528 9.91663 17 9.91663C19.3472 9.91663 21.25 11.8194 21.25 14.1666Z" fill="#AC6C48"/>
<circle cx="17" cy="15" r="6" fill="#AC6C48"/>
<path d="M14.5 15C15.33 15 16 14.33 16 13.5C16 12.67 15.33 12 14.5 12C13.67 12 13 12.67 13 13.5C13 14.33 13.67 15 14.5 15ZM14.5 13C14.775 13 15 13.225 15 13.5C15 13.775 14.775 14 14.5 14C14.225 14 14 13.775 14 13.5C14 13.225 14.225 13 14.5 13ZM20.5 11.5H18.5C17.3954 11.5 16.5 12.3954 16.5 13.5V15.5H12.5V11C12.5 10.7239 12.2761 10.5 12 10.5V10.5C11.7239 10.5 11.5 10.7239 11.5 11V17.5C11.5 17.7761 11.7239 18 12 18V18C12.2761 18 12.5 17.7761 12.5 17.5V16.5H21.5V17.5C21.5 17.7761 21.7239 18 22 18V18C22.2761 18 22.5 17.7761 22.5 17.5V13.5C22.5 12.395 21.605 11.5 20.5 11.5ZM21.5 15.5H17.5V12.5H20.5C21.05 12.5 21.5 12.95 21.5 13.5V15.5Z" fill="white"/>
<rect x="17" y="12.2" width="4.8" height="3.6" fill="white"/>
<ellipse cx="14.3004" cy="13.7" rx="0.9" ry="0.9" fill="white"/>
</svg>
