<svg width="40" height="40" viewBox="0 0 40 40" fill="none" xmlns="http://www.w3.org/2000/svg">
<rect width="40" height="40" rx="20" fill="#AC6C48"/>
<path d="M15.833 21.6666C17.2163 21.6666 18.333 20.55 18.333 19.1666C18.333 17.7833 17.2163 16.6666 15.833 16.6666C14.4497 16.6666 13.333 17.7833 13.333 19.1666C13.333 20.55 14.4497 21.6666 15.833 21.6666ZM15.833 18.3333C16.2913 18.3333 16.6663 18.7083 16.6663 19.1666C16.6663 19.625 16.2913 20 15.833 20C15.3747 20 14.9997 19.625 14.9997 19.1666C14.9997 18.7083 15.3747 18.3333 15.833 18.3333ZM25.833 15.8333H21.1663C20.0618 15.8333 19.1663 16.7287 19.1663 17.8333V22.5H12.4997V15C12.4997 14.5397 12.1266 14.1666 11.6663 14.1666C11.2061 14.1666 10.833 14.5397 10.833 15V25.8333C10.833 26.2935 11.2061 26.6666 11.6663 26.6666C12.1266 26.6666 12.4997 26.2935 12.4997 25.8333V24.1666H27.4997V25.8333C27.4997 26.2935 27.8728 26.6666 28.333 26.6666C28.7932 26.6666 29.1663 26.2935 29.1663 25.8333V19.1666C29.1663 17.325 27.6747 15.8333 25.833 15.8333ZM27.4997 22.5H20.833V17.5H25.833C26.7497 17.5 27.4997 18.25 27.4997 19.1666V22.5Z" fill="white"/>
<rect x="20" y="17" width="8" height="6" fill="white"/>
<circle cx="15.5" cy="19.5" r="1.5" fill="white"/>
</svg>
