<svg width="46" height="46" viewBox="0 0 46 46" fill="none" xmlns="http://www.w3.org/2000/svg">
<path fill-rule="evenodd" clip-rule="evenodd" d="M23 44.0833C23 44.0833 40.25 32.5833 40.25 19.1666C40.25 14.5916 38.4326 10.204 35.1976 6.96903C31.9626 3.73403 27.575 1.91663 23 1.91663C18.425 1.91663 14.0374 3.73403 10.8024 6.96903C7.56741 10.204 5.75 14.5916 5.75 19.1666C5.75 32.5833 23 44.0833 23 44.0833ZM28.75 19.1666C28.75 22.3423 26.1756 24.9166 23 24.9166C19.8244 24.9166 17.25 22.3423 17.25 19.1666C17.25 15.991 19.8244 13.4166 23 13.4166C26.1756 13.4166 28.75 15.991 28.75 19.1666Z" fill="#EC1D43"/>
</svg>
