<svg width="40" height="40" viewBox="0 0 40 40" fill="none" xmlns="http://www.w3.org/2000/svg">
<rect width="40" height="40" rx="20" fill="#718390"/>
<path d="M19.1663 20C19.1663 20.4602 19.5394 20.8333 19.9997 20.8333C20.4599 20.8333 20.833 20.4602 20.833 20C20.833 19.5397 20.4599 19.1666 19.9997 19.1666C19.5394 19.1666 19.1663 19.5397 19.1663 20Z" fill="white" stroke="white" stroke-width="2" stroke-linecap="round" stroke-linejoin="round"/>
<path d="M25.0003 20C25.0003 20.4602 25.3734 20.8333 25.8337 20.8333C26.2939 20.8333 26.667 20.4602 26.667 20C26.667 19.5397 26.2939 19.1666 25.8337 19.1666C25.3734 19.1666 25.0003 19.5397 25.0003 20Z" fill="white" stroke="white" stroke-width="2" stroke-linecap="round" stroke-linejoin="round"/>
<path d="M13.3333 20C13.3333 20.4602 13.7064 20.8333 14.1667 20.8333C14.6269 20.8333 15 20.4602 15 20C15 19.5397 14.6269 19.1666 14.1667 19.1666C13.7064 19.1666 13.3333 19.5397 13.3333 20Z" fill="white" stroke="white" stroke-width="2" stroke-linecap="round" stroke-linejoin="round"/>
</svg>
