<svg width="20" height="20" viewBox="0 0 20 20" fill="none" xmlns="http://www.w3.org/2000/svg">
<path d="M9.99935 10.8334C10.4596 10.8334 10.8327 10.4603 10.8327 10.0001C10.8327 9.53984 10.4596 9.16675 9.99935 9.16675C9.53911 9.16675 9.16602 9.53984 9.16602 10.0001C9.16602 10.4603 9.53911 10.8334 9.99935 10.8334Z" fill="#A1AAAF" stroke="#A1AAAF" stroke-width="2" stroke-linecap="round" stroke-linejoin="round"/>
<path d="M9.99935 4.99992C10.4596 4.99992 10.8327 4.62682 10.8327 4.16659C10.8327 3.70635 10.4596 3.33325 9.99935 3.33325C9.53911 3.33325 9.16602 3.70635 9.16602 4.16659C9.16602 4.62682 9.53911 4.99992 9.99935 4.99992Z" fill="#A1AAAF" stroke="#A1AAAF" stroke-width="2" stroke-linecap="round" stroke-linejoin="round"/>
<path d="M9.99935 16.6667C10.4596 16.6667 10.8327 16.2936 10.8327 15.8333C10.8327 15.3731 10.4596 15 9.99935 15C9.53911 15 9.16602 15.3731 9.16602 15.8333C9.16602 16.2936 9.53911 16.6667 9.99935 16.6667Z" fill="#A1AAAF" stroke="#A1AAAF" stroke-width="2" stroke-linecap="round" stroke-linejoin="round"/>
</svg>
