<svg width="23" height="23" viewBox="0 0 23 23" fill="none" xmlns="http://www.w3.org/2000/svg">
<path d="M16.2916 2.87509C16.5433 2.62339 16.8421 2.42373 17.171 2.28751C17.4999 2.15129 17.8523 2.08118 18.2083 2.08118C18.5642 2.08118 18.9167 2.15129 19.2456 2.28751C19.5744 2.42373 19.8733 2.62339 20.125 2.87509C20.3767 3.12679 20.5763 3.4256 20.7125 3.75446C20.8488 4.08332 20.9189 4.43579 20.9189 4.79175C20.9189 5.14771 20.8488 5.50018 20.7125 5.82904C20.5763 6.15791 20.3767 6.45672 20.125 6.70842L7.18746 19.6459L1.91663 21.0834L3.35413 15.8126L16.2916 2.87509Z" stroke="#222222" stroke-width="2" stroke-linecap="round" stroke-linejoin="round"/>
<path d="M4 15L8 19" stroke="#222222" stroke-width="2"/>
</svg>
