<svg width="34" height="34" viewBox="0 0 34 34" fill="none" xmlns="http://www.w3.org/2000/svg">
<path fill-rule="evenodd" clip-rule="evenodd" d="M17 32.5833C17 32.5833 29.75 24.0833 29.75 14.1666C29.75 10.7851 28.4067 7.5421 26.0156 5.15101C23.6245 2.75993 20.3815 1.41663 17 1.41663C13.6185 1.41663 10.3755 2.75993 7.98439 5.15101C5.5933 7.5421 4.25 10.7851 4.25 14.1666C4.25 24.0833 17 32.5833 17 32.5833ZM21.25 14.1666C21.25 16.5138 19.3472 18.4166 17 18.4166C14.6528 18.4166 12.75 16.5138 12.75 14.1666C12.75 11.8194 14.6528 9.91663 17 9.91663C19.3472 9.91663 21.25 11.8194 21.25 14.1666Z" fill="#4890E8"/>
<circle cx="17" cy="15" r="6" fill="#4890E8"/>
<path d="M19.3333 11.5V15.2916C19.3333 15.7749 19.7251 16.1666 20.2083 16.1666V16.1666C20.6916 16.1666 21.0833 16.5584 21.0833 17.0416V20.25C21.0833 20.5721 21.3445 20.8333 21.6667 20.8333V20.8333C21.9888 20.8333 22.25 20.5721 22.25 20.25V11.1666C22.25 10.0621 21.275 9.13772 20.3848 9.79159C19.7424 10.2634 19.3333 10.9255 19.3333 11.5ZM16.4167 12.6666C16.4167 12.9888 16.1555 13.25 15.8333 13.25V13.25C15.5112 13.25 15.25 12.9888 15.25 12.6666V9.74996C15.25 9.42779 14.9888 9.16663 14.6667 9.16663V9.16663C14.3445 9.16663 14.0833 9.42779 14.0833 9.74996V12.6666C14.0833 12.9888 13.8222 13.25 13.5 13.25V13.25C13.1778 13.25 12.9167 12.9888 12.9167 12.6666V9.74996C12.9167 9.42779 12.6555 9.16663 12.3333 9.16663V9.16663C12.0112 9.16663 11.75 9.42779 11.75 9.74996V13.25C11.75 13.8344 11.9646 14.3684 12.3193 14.7777C13.0427 15.6124 14.0833 16.4787 14.0833 17.5833V20.25C14.0833 20.5721 14.3445 20.8333 14.6667 20.8333V20.8333C14.9888 20.8333 15.25 20.5721 15.25 20.25V17.5833C15.25 16.4787 16.2906 15.6124 17.014 14.7777C17.3688 14.3684 17.5833 13.8344 17.5833 13.25V9.74996C17.5833 9.42779 17.3222 9.16663 17 9.16663V9.16663C16.6778 9.16663 16.4167 9.42779 16.4167 9.74996V12.6666Z" fill="white"/>
</svg>
