<svg width="40" height="40" viewBox="0 0 40 40" fill="none" xmlns="http://www.w3.org/2000/svg">
<rect width="40" height="40" rx="20" fill="#634FF1"/>
<path d="M20 11.75V28.25" stroke="white" stroke-width="1.5" stroke-linecap="round" stroke-linejoin="round"/>
<path d="M23.75 14.75H18.125C17.4288 14.75 16.7611 15.0266 16.2688 15.5188C15.7766 16.0111 15.5 16.6788 15.5 17.375C15.5 18.0712 15.7766 18.7389 16.2688 19.2312C16.7611 19.7234 17.4288 20 18.125 20H21.875C22.5712 20 23.2389 20.2766 23.7312 20.7688C24.2234 21.2611 24.5 21.9288 24.5 22.625C24.5 23.3212 24.2234 23.9889 23.7312 24.4812C23.2389 24.9734 22.5712 25.25 21.875 25.25H15.5" stroke="white" stroke-width="1.5" stroke-linecap="round" stroke-linejoin="round"/>
</svg>
