<svg width="40" height="40" viewBox="0 0 40 40" fill="none" xmlns="http://www.w3.org/2000/svg">
<rect width="40" height="40" rx="20" fill="#A564D2"/>
<path d="M15 11.6666L12.5 15V26.6666C12.5 27.1087 12.6756 27.5326 12.9882 27.8451C13.3007 28.1577 13.7246 28.3333 14.1667 28.3333H25.8333C26.2754 28.3333 26.6993 28.1577 27.0118 27.8451C27.3244 27.5326 27.5 27.1087 27.5 26.6666V15L25 11.6666H15Z" stroke="white" stroke-width="1.5" stroke-linecap="round" stroke-linejoin="round"/>
<path d="M12.5 15H27.5" stroke="white" stroke-width="1.5" stroke-linecap="round" stroke-linejoin="round"/>
<path fill-rule="evenodd" clip-rule="evenodd" d="M27 15H13V28H27V15ZM17.417 18.3334C17.417 17.9192 17.0812 17.5834 16.667 17.5834C16.2528 17.5834 15.917 17.9192 15.917 18.3334C15.917 19.4163 16.3472 20.455 17.113 21.2207C17.8787 21.9865 18.9174 22.4167 20.0003 22.4167C21.0833 22.4167 22.1219 21.9865 22.8877 21.2207C23.6535 20.455 24.0837 19.4163 24.0837 18.3334C24.0837 17.9192 23.7479 17.5834 23.3337 17.5834C22.9194 17.5834 22.5837 17.9192 22.5837 18.3334C22.5837 19.0185 22.3115 19.6756 21.827 20.1601C21.3426 20.6445 20.6855 20.9167 20.0003 20.9167C19.3152 20.9167 18.6581 20.6445 18.1736 20.1601C17.6892 19.6756 17.417 19.0185 17.417 18.3334Z" fill="white"/>
</svg>
