<svg width="34" height="34" viewBox="0 0 34 34" fill="none" xmlns="http://www.w3.org/2000/svg">
<path fill-rule="evenodd" clip-rule="evenodd" d="M17 32.5833C17 32.5833 29.75 24.0833 29.75 14.1666C29.75 10.7851 28.4067 7.5421 26.0156 5.15101C23.6245 2.75993 20.3815 1.41663 17 1.41663C13.6185 1.41663 10.3755 2.75993 7.98439 5.15101C5.5933 7.5421 4.25 10.7851 4.25 14.1666C4.25 24.0833 17 32.5833 17 32.5833ZM21.25 14.1666C21.25 16.5138 19.3472 18.4166 17 18.4166C14.6528 18.4166 12.75 16.5138 12.75 14.1666C12.75 11.8194 14.6528 9.91663 17 9.91663C19.3472 9.91663 21.25 11.8194 21.25 14.1666Z" fill="#718390"/>
<circle cx="17" cy="15" r="6" fill="#718390"/>
<path d="M16.9997 9.16663C14.4213 9.16663 12.333 9.45829 12.333 11.5V17.3333C12.333 17.8466 12.5605 18.3075 12.9163 18.6283V19.6666C12.9163 19.9875 13.1788 20.25 13.4997 20.25H14.083C14.4038 20.25 14.6663 19.9875 14.6663 19.6666V19.0833H19.333V19.6666C19.333 19.9875 19.5955 20.25 19.9163 20.25H20.4997C20.8205 20.25 21.083 19.9875 21.083 19.6666V18.6283C21.4388 18.3075 21.6663 17.8466 21.6663 17.3333V11.5C21.6663 9.45829 19.578 9.16663 16.9997 9.16663ZM20.3013 10.9108H13.698C14.0188 10.6016 14.8472 10.3333 16.9997 10.3333C19.1522 10.3333 19.9805 10.6016 20.3013 10.9108ZM20.4997 12.0775V13.8333H13.4997V12.0775H20.4997ZM20.3013 17.7591L20.1322 17.9166H13.8672L13.698 17.7591C13.6222 17.695 13.4997 17.5491 13.4997 17.3333V15H20.4997V17.3333C20.4997 17.5491 20.3772 17.695 20.3013 17.7591Z" fill="white"/>
<path fill-rule="evenodd" clip-rule="evenodd" d="M13.5 15H20.5V17.9167H13.5V15ZM14.9584 17.3333C15.4417 17.3333 15.8334 16.9416 15.8334 16.4583C15.8334 15.9751 15.4417 15.5833 14.9584 15.5833C14.4752 15.5833 14.0834 15.9751 14.0834 16.4583C14.0834 16.9416 14.4752 17.3333 14.9584 17.3333ZM19.9166 16.4583C19.9166 16.9416 19.5248 17.3333 19.0416 17.3333C18.5583 17.3333 18.1666 16.9416 18.1666 16.4583C18.1666 15.9751 18.5583 15.5833 19.0416 15.5833C19.5248 15.5833 19.9166 15.9751 19.9166 16.4583Z" fill="white"/>
<rect x="13.5" y="10.3334" width="7" height="1.16667" fill="white"/>
</svg>
