<svg width="34" height="34" viewBox="0 0 34 34" fill="none" xmlns="http://www.w3.org/2000/svg">
<path fill-rule="evenodd" clip-rule="evenodd" d="M17 32.5833C17 32.5833 29.75 24.0833 29.75 14.1666C29.75 10.7851 28.4067 7.5421 26.0156 5.15101C23.6245 2.75993 20.3815 1.41663 17 1.41663C13.6185 1.41663 10.3755 2.75993 7.98439 5.15101C5.5933 7.5421 4.25 10.7851 4.25 14.1666C4.25 24.0833 17 32.5833 17 32.5833ZM21.25 14.1666C21.25 16.5138 19.3472 18.4166 17 18.4166C14.6528 18.4166 12.75 16.5138 12.75 14.1666C12.75 11.8194 14.6528 9.91663 17 9.91663C19.3472 9.91663 21.25 11.8194 21.25 14.1666Z" fill="#5EBE86"/>
<circle cx="17" cy="15" r="6" fill="#5EBE86"/>
<path d="M14.7393 20.25C14.9636 20.25 15.1455 20.0821 15.1455 19.875C15.1455 19.6679 14.9636 19.5 14.7393 19.5C14.5149 19.5 14.333 19.6679 14.333 19.875C14.333 20.0821 14.5149 20.25 14.7393 20.25Z" fill="white" stroke="white" stroke-width="1.5" stroke-linecap="round" stroke-linejoin="round"/>
<path d="M20.6982 20.25C20.9226 20.25 21.1045 20.0821 21.1045 19.875C21.1045 19.6679 20.9226 19.5 20.6982 19.5C20.4739 19.5 20.292 19.6679 20.292 19.875C20.292 20.0821 20.4739 20.25 20.6982 20.25Z" fill="white" stroke="white" stroke-width="1.5" stroke-linecap="round" stroke-linejoin="round"/>
<path d="M10.542 9.5H12.7087L14.1603 16.195C14.2099 16.4252 14.3455 16.632 14.5436 16.7791C14.7416 16.9263 14.9895 17.0045 15.2437 17H20.5087C20.7629 17.0045 21.0107 16.9263 21.2087 16.7791C21.4068 16.632 21.5425 16.4252 21.592 16.195L22.4587 12H13.2503" stroke="white" stroke-width="1.5" stroke-linecap="round" stroke-linejoin="round"/>
<path d="M14.5502 16.9444L13.5752 12.3611L22.3502 12.0555L21.0502 16.9444H14.5502Z" fill="white"/>
</svg>
