<svg width="40" height="40" viewBox="0 0 40 40" fill="none" xmlns="http://www.w3.org/2000/svg">
<rect width="40" height="40" rx="20" fill="#718390"/>
<path d="M19.9997 12.6666C16.3163 12.6666 13.333 13.0833 13.333 16V24.3333C13.333 25.0666 13.658 25.725 14.1663 26.1833V27.6666C14.1663 28.125 14.5413 28.5 14.9997 28.5H15.833C16.2913 28.5 16.6663 28.125 16.6663 27.6666V26.8333H23.333V27.6666C23.333 28.125 23.708 28.5 24.1663 28.5H24.9997C25.458 28.5 25.833 28.125 25.833 27.6666V26.1833C26.3413 25.725 26.6663 25.0666 26.6663 24.3333V16C26.6663 13.0833 23.683 12.6666 19.9997 12.6666ZM24.7163 15.1583H15.283C15.7413 14.7166 16.9247 14.3333 19.9997 14.3333C23.0747 14.3333 24.258 14.7166 24.7163 15.1583ZM24.9997 16.825V19.3333H14.9997V16.825H24.9997ZM24.7163 24.9416L24.4747 25.1666H15.5247L15.283 24.9416C15.1747 24.85 14.9997 24.6416 14.9997 24.3333V21H24.9997V24.3333C24.9997 24.6416 24.8247 24.85 24.7163 24.9416Z" fill="white"/>
<path fill-rule="evenodd" clip-rule="evenodd" d="M15 21H25V25.1667H15V21ZM17.0833 24.3333C17.7737 24.3333 18.3333 23.7737 18.3333 23.0833C18.3333 22.393 17.7737 21.8333 17.0833 21.8333C16.393 21.8333 15.8333 22.393 15.8333 23.0833C15.8333 23.7737 16.393 24.3333 17.0833 24.3333ZM24.1667 23.0833C24.1667 23.7737 23.607 24.3333 22.9167 24.3333C22.2263 24.3333 21.6667 23.7737 21.6667 23.0833C21.6667 22.393 22.2263 21.8333 22.9167 21.8333C23.607 21.8333 24.1667 22.393 24.1667 23.0833Z" fill="white"/>
<rect x="15" y="14.3334" width="10" height="1.66667" fill="white"/>
</svg>
